<?xml version="1.0" encoding="utf-8"?>
<!-- Generator: Adobe Illustrator 20.1.0, SVG Export Plug-In . SVG Version: 6.00 Build 0)  -->
<svg version="1.1" id="레이어_1" xmlns="http://www.w3.org/2000/svg" xmlns:xlink="http://www.w3.org/1999/xlink" x="0px"
	 y="0px" viewBox="0 0 192.5 254" style="enable-background:new 0 0 192.5 254;" xml:space="preserve">
<style type="text/css">
	.st0{fill:#1A1A1A;}
</style>
<g>
	<g>
		<g>
			<g>
				<path class="st0" d="M45.5,185.4c0,0.3-0.3,1.3-0.8,2.9c-0.1,0.2-0.2,0.4-0.2,0.8c-0.1,0.4-0.2,0.7-0.3,0.7
					c-0.1,0-0.1-0.1-0.1-0.2c0-0.2,0-0.4,0.1-0.6c0.1-0.5,0.2-0.9,0.2-1.3c0-0.9-0.3-1.4-0.8-1.7c-0.2-0.1-0.4-0.1-0.6-0.1
					c-0.2,0-0.9,0-1.8,0c-0.2,0-0.4,0-0.6,0c-0.2,0-0.3,0-0.4,0h-0.6c-0.1,0-0.2,0-0.3,0.1c-0.1,0.1-0.2,0.3-0.3,0.6l-2.8,6.7
					c0.2,0,0.3,0,0.5,0c1.1,0,1.8,0,2-0.1c0.7-0.2,1.3-0.9,1.8-2c0.3-0.7,0.5-1,0.6-1c0.1,0,0.2,0,0.2,0.1c0,0.2-0.3,0.9-0.8,2.3
					c-0.2,0.5-0.4,1.2-0.7,2.1c0,0.1-0.2,0.5-0.3,1.1c-0.2,0.9-0.4,1.3-0.6,1.3c-0.1,0-0.2-0.1-0.2-0.2c0-0.2,0-0.4,0.1-0.7
					c0.1-0.4,0.1-0.7,0.1-0.9c0-0.9-0.5-1.4-1.5-1.4c-0.7,0-1.2,0-1.5,0.1l-2.5,6.4c-0.3,0.8-0.5,1.2-0.5,1.3c0,0.1,0.1,0.2,0.4,0.2
					c0.1,0,0.8,0,1.9,0c0.2,0,0.3,0.1,0.3,0.2c0,0.1-0.1,0.2-0.4,0.2h-1.9h-3h-1.3c-0.4,0-0.6,0-0.7,0c-0.2,0-0.3-0.1-0.3-0.2
					c0-0.1,0.1-0.2,0.3-0.2c0.3,0,0.5,0,0.7,0c0.1,0,0.2,0,0.2,0c0.7,0,1.1-0.1,1.3-0.3c0.1-0.1,0.3-0.5,0.6-1.4l5-12.6
					c0.3-0.8,0.5-1.3,0.5-1.4c0-0.1-0.1-0.2-0.3-0.2h-1.4c-0.2,0-0.4-0.1-0.4-0.3c0-0.1,0.1-0.2,0.3-0.2c0.1,0,0.3,0,0.4,0l1.5,0
					l5.2,0c0.2,0,0.6,0,1.2,0c0.5,0,0.9-0.1,1.2,0l0.7,0.1c0.1,0,0.2,0,0.3-0.1h0.1C45.4,185.3,45.5,185.4,45.5,185.4z"/>
				<path class="st0" d="M53.6,191.9c0,0-0.1,0.2-0.2,0.5l-3.2,7.2c-0.3,0.7-0.5,1.2-0.5,1.6c0,0.4,0.2,0.6,0.6,0.6
					c0.6,0,1.2-0.4,1.9-1.3c0.1-0.2,0.2-0.3,0.3-0.3c0.1,0,0.1,0,0.1,0.1c0,0.2-0.2,0.5-0.5,0.8c-0.7,0.8-1.5,1.1-2.5,1.1
					c-0.5,0-0.9-0.1-1.2-0.4c-0.3-0.2-0.5-0.6-0.5-0.9c0-0.2,0.1-0.5,0.2-0.8c-1,1.5-2.2,2.2-3.5,2.2c-0.8,0-1.5-0.3-2-0.8
					c-0.5-0.5-0.8-1.2-0.8-2c0-0.9,0.3-1.9,0.9-3c0.6-1.1,1.4-2.1,2.4-3c1.4-1.2,2.6-1.8,3.8-1.8c1.2,0,1.9,0.6,2,1.7l0.6-1.3
					c0.1-0.3,0.2-0.4,0.3-0.4c0,0,0.1,0,0.3,0c0.2,0,0.3,0,0.3,0c0.4,0,0.6,0,0.8-0.1c0.1,0,0.1-0.1,0.2-0.1
					C53.5,191.7,53.6,191.7,53.6,191.9z M50.5,193.8c0-0.5-0.1-0.9-0.4-1.2c-0.3-0.3-0.7-0.5-1.1-0.5c-0.8,0-1.6,0.5-2.3,1.4
					c-0.8,1.1-1.5,2.2-2,3.4c-0.5,1.2-0.8,2.2-0.8,3.1c0,1.1,0.4,1.6,1.3,1.6c0.5,0,1.1-0.3,1.7-0.8c0.6-0.6,1.1-1.3,1.5-2.1l1.9-4
					C50.4,194.3,50.5,194,50.5,193.8z"/>
				<path class="st0" d="M61.9,185.2c0,0,0,0.1-0.1,0.3c0,0.1-0.1,0.3-0.2,0.6l-5.4,13.1c-0.4,1-0.6,1.6-0.6,1.9
					c0,0.4,0.3,0.6,0.9,0.6s1.2-0.3,1.7-1c0.2-0.3,0.4-0.4,0.5-0.4c0.1,0,0.2,0.1,0.2,0.2c0,0.2-0.3,0.5-0.8,1
					c-0.6,0.5-1.4,0.8-2.4,0.8c-1.3,0-2-0.5-2-1.5c0-0.3,0.2-1,0.6-1.9l5.4-13.1c0-0.1,0.1-0.2,0.1-0.2c0-0.1-0.2-0.2-0.5-0.2
					c-0.7,0-1.1-0.1-1.1-0.2c0-0.1,0.1-0.1,0.2-0.1s0.4,0,0.7,0c0.3,0,0.5,0,0.7,0c0.7,0,1.2,0,1.5-0.1c0.2,0,0.3,0,0.4,0
					C61.8,185,61.9,185.1,61.9,185.2z"/>
				<path class="st0" d="M67.7,185.2c0,0,0,0.1-0.1,0.3c0,0.1-0.1,0.3-0.2,0.6L62,199.3c-0.4,1-0.6,1.6-0.6,1.9
					c0,0.4,0.3,0.6,0.9,0.6c0.6,0,1.2-0.3,1.7-1c0.2-0.3,0.4-0.4,0.5-0.4c0.1,0,0.2,0.1,0.2,0.2c0,0.2-0.3,0.5-0.8,1
					c-0.6,0.5-1.4,0.8-2.4,0.8c-1.3,0-2-0.5-2-1.5c0-0.3,0.2-1,0.6-1.9l5.4-13.1c0-0.1,0.1-0.2,0.1-0.2c0-0.1-0.2-0.2-0.5-0.2
					c-0.7,0-1.1-0.1-1.1-0.2c0-0.1,0.1-0.1,0.2-0.1c0.1,0,0.4,0,0.7,0c0.3,0,0.5,0,0.7,0c0.7,0,1.2,0,1.5-0.1c0.2,0,0.3,0,0.4,0
					C67.6,185,67.7,185.1,67.7,185.2z"/>
				<path class="st0" d="M71,191.9c0,0,0,0.1-0.1,0.3c-0.1,0.2-0.3,0.6-0.6,1.2l-2.8,6.3c-0.4,0.8-0.6,1.4-0.6,1.6
					c0,0.4,0.2,0.6,0.7,0.6c0.3,0,0.7-0.1,1-0.3c0.4-0.2,0.7-0.5,0.9-0.8c0.1-0.2,0.3-0.3,0.3-0.3c0.1,0,0.1,0,0.1,0.1
					c0,0.2-0.2,0.5-0.7,0.9c-0.7,0.6-1.4,0.9-2.3,0.9c-0.6,0-1-0.1-1.4-0.4c-0.4-0.3-0.5-0.7-0.5-1.1c0-0.4,0.2-1,0.6-1.9l2.5-5.6
					c0.1-0.3,0.2-0.5,0.3-0.6c0-0.1,0.1-0.1,0.1-0.2c0-0.1-0.4-0.2-1.1-0.3c-0.1,0-0.2-0.1-0.2-0.2c0-0.1,0.1-0.2,0.2-0.2
					c0,0,0.1,0,0.4,0c0.2,0,0.6,0,1.1,0c0.7,0,1.1-0.1,1.4-0.2c0.2-0.1,0.3-0.1,0.3-0.1C71,191.7,71,191.7,71,191.9z M72.7,187.4
					c0,0.7-0.3,1-0.9,1c-0.3,0-0.6-0.1-0.8-0.3c-0.2-0.2-0.3-0.5-0.3-0.8c0-0.7,0.4-1,1.1-1C72.4,186.3,72.7,186.7,72.7,187.4z"/>
				<path class="st0" d="M81.8,193.6c0,0.4-0.2,1.1-0.6,2l-1.9,4.4c-0.2,0.5-0.3,0.9-0.3,1c0,0.3,0.2,0.5,0.6,0.5
					c0.5,0,1.1-0.4,2-1.1c0.1,0,0.1-0.1,0.2-0.1c0.1,0,0.1,0,0.1,0.1c0,0.2-0.3,0.5-0.8,0.8c-0.7,0.5-1.5,0.7-2.3,0.7
					c-0.5,0-0.9-0.1-1.2-0.3c-0.3-0.2-0.5-0.5-0.5-0.8c0-0.3,0.2-0.8,0.5-1.4l1.9-4.3c0.5-1,0.7-1.8,0.7-2.1c0-0.5-0.3-0.8-0.8-0.8
					c-0.7,0-1.6,0.5-2.6,1.6c-0.8,0.8-1.4,1.9-2.1,3.4l-2,4.6c-0.1,0.2-0.2,0.4-0.3,0.4c0,0-0.2,0-0.5,0c0,0-0.1,0-0.3,0
					c-0.1,0-0.3,0-0.6,0c0,0-0.1,0-0.2,0c-0.1,0-0.2,0-0.2-0.1c0,0,0-0.1,0.1-0.1l0.2-0.4l3.7-8.8c0-0.1,0.1-0.2,0.1-0.2
					c0-0.1-0.2-0.2-0.6-0.2c-0.5,0-0.7-0.1-0.7-0.3c0-0.1,0.1-0.2,0.3-0.2c0.1,0,0.3,0,0.5,0c0.2,0,0.4,0,0.6,0
					c0.9,0,1.4-0.1,1.7-0.2c0.1,0,0.2-0.1,0.2-0.1c0.1,0,0.1,0,0.1,0.1c0,0,0,0.1,0,0.1l-0.9,2.3c0.1-0.1,0.3-0.4,0.6-0.6
					c1.2-1.3,2.3-1.9,3.4-1.9c0.6,0,1.2,0.2,1.6,0.5C81.6,192.5,81.8,193,81.8,193.6z"/>
				<path class="st0" d="M94.1,192.6c0,0.5-0.2,0.8-0.7,0.8c-0.4,0-0.7-0.2-0.7-0.6c0,0,0-0.1,0-0.2c0-0.1,0-0.1,0-0.2
					c0-0.1,0-0.1-0.1-0.1c-0.2,0-0.4,0.2-0.7,0.5c-0.3,0.3-0.4,0.6-0.4,0.8c0,0.1,0,0.2,0.1,0.3c0.2,0.4,0.3,0.9,0.3,1.5
					c0,1.1-0.4,2.1-1.1,2.9c-0.8,0.8-1.8,1.2-3,1.2c-0.9,0-1.8-0.3-2.5-0.8c-1.2,0.4-1.8,0.9-1.8,1.4c0,0.3,0.2,0.5,0.7,0.6
					c0.9,0.1,1.4,0.2,1.5,0.2h2c0.9,0,1.6,0,2,0.1c1.2,0.3,1.8,1.2,1.8,2.6c0,1.3-0.5,2.4-1.4,3.3c-1,1-2.3,1.5-4.1,1.5
					c-1.2,0-2.4-0.3-3.3-0.9c-1.2-0.7-1.8-1.5-1.8-2.5c0-0.7,0.3-1.2,0.9-1.6c0.3-0.2,0.9-0.5,1.8-0.8c-0.9-0.4-1.4-0.9-1.4-1.7
					c0-1.2,0.9-2.1,2.8-2.6c-0.5-0.7-0.8-1.4-0.8-2c0-1.2,0.5-2.3,1.4-3.2c0.9-0.9,2-1.3,3.2-1.3c1,0,1.8,0.4,2.4,1.3
					c0.6-0.9,1.2-1.4,1.9-1.4C93.7,191.6,94.1,192,94.1,192.6z M90.6,204.4c0-0.4-0.1-0.8-0.4-1.1c-0.3-0.3-0.6-0.5-1-0.6
					c-0.5-0.1-1.4-0.2-2.5-0.1H84c-1,0.5-1.5,1.3-1.5,2.3c0,0.9,0.3,1.6,0.9,2.1c0.6,0.5,1.5,0.8,2.5,0.8c1.2,0,2.3-0.3,3.2-1
					C90.2,206.2,90.6,205.4,90.6,204.4z M90.2,193.8c0-1.1-0.5-1.7-1.4-1.7c-0.8,0-1.5,0.7-2.1,2c-0.5,1.2-0.8,2.2-0.8,3.3
					c0,1,0.5,1.6,1.5,1.6c0.8,0,1.4-0.6,1.9-1.9C89.9,195.9,90.2,194.8,90.2,193.8z"/>
				<path class="st0" d="M103.5,191.9c0,0,0,0.1-0.1,0.3c-0.1,0.2-0.3,0.6-0.6,1.2l-2.8,6.3c-0.4,0.8-0.6,1.4-0.6,1.6
					c0,0.4,0.2,0.6,0.7,0.6c0.3,0,0.7-0.1,1-0.3c0.4-0.2,0.7-0.5,0.9-0.8c0.1-0.2,0.3-0.3,0.3-0.3c0.1,0,0.1,0,0.1,0.1
					c0,0.2-0.2,0.5-0.7,0.9c-0.7,0.6-1.4,0.9-2.3,0.9c-0.6,0-1-0.1-1.4-0.4c-0.4-0.3-0.5-0.7-0.5-1.1c0-0.4,0.2-1,0.6-1.9l2.5-5.6
					c0.1-0.3,0.2-0.5,0.3-0.6c0-0.1,0.1-0.1,0.1-0.2c0-0.1-0.4-0.2-1.1-0.3c-0.1,0-0.2-0.1-0.2-0.2c0-0.1,0.1-0.2,0.2-0.2
					c0,0,0.1,0,0.4,0c0.2,0,0.6,0,1.1,0c0.7,0,1.1-0.1,1.4-0.2c0.2-0.1,0.3-0.1,0.3-0.1C103.4,191.7,103.5,191.7,103.5,191.9z
					 M105.1,187.4c0,0.7-0.3,1-0.9,1c-0.3,0-0.6-0.1-0.8-0.3c-0.2-0.2-0.3-0.5-0.3-0.8c0-0.7,0.4-1,1.1-1
					C104.8,186.3,105.1,186.7,105.1,187.4z"/>
				<path class="st0" d="M114.2,193.6c0,0.4-0.2,1.1-0.6,2l-1.9,4.4c-0.2,0.5-0.3,0.9-0.3,1c0,0.3,0.2,0.5,0.6,0.5
					c0.5,0,1.1-0.4,2-1.1c0.1,0,0.1-0.1,0.2-0.1c0.1,0,0.1,0,0.1,0.1c0,0.2-0.3,0.5-0.8,0.8c-0.7,0.5-1.5,0.7-2.3,0.7
					c-0.5,0-0.9-0.1-1.2-0.3c-0.3-0.2-0.5-0.5-0.5-0.8c0-0.3,0.2-0.8,0.5-1.4l1.9-4.3c0.5-1,0.7-1.8,0.7-2.1c0-0.5-0.3-0.8-0.8-0.8
					c-0.7,0-1.6,0.5-2.6,1.6c-0.8,0.8-1.4,1.9-2.1,3.4l-2,4.6c-0.1,0.2-0.2,0.4-0.3,0.4c0,0-0.2,0-0.5,0c0,0-0.1,0-0.3,0
					c-0.1,0-0.3,0-0.6,0c0,0-0.1,0-0.2,0c-0.1,0-0.2,0-0.2-0.1c0,0,0-0.1,0.1-0.1l0.2-0.4l3.7-8.8c0-0.1,0.1-0.2,0.1-0.2
					c0-0.1-0.2-0.2-0.6-0.2c-0.5,0-0.7-0.1-0.7-0.3c0-0.1,0.1-0.2,0.3-0.2c0.1,0,0.3,0,0.5,0c0.2,0,0.4,0,0.6,0
					c0.9,0,1.4-0.1,1.7-0.2c0.1,0,0.2-0.1,0.2-0.1c0.1,0,0.1,0,0.1,0.1c0,0,0,0.1,0,0.1l-0.9,2.3c0.1-0.1,0.3-0.4,0.6-0.6
					c1.2-1.3,2.3-1.9,3.4-1.9c0.6,0,1.2,0.2,1.6,0.5C114,192.5,114.2,193,114.2,193.6z"/>
				<path class="st0" d="M132.6,197.3c0,0.2-0.4,1.5-1.3,3.7l-0.3,0.7c-0.1,0.2-0.1,0.3-0.2,0.3c-0.1,0-0.4,0-0.9,0h-1.5
					c-0.7,0-1.3,0-2,0c-0.7,0-1,0-0.9,0c-0.1,0-0.3,0-0.8,0c-0.4,0-0.9,0-1.2,0h-1.9c-0.3,0-0.6,0-1,0c-0.3,0-0.5,0-0.5,0
					c-0.2,0-0.5,0-0.9,0c-0.4,0-0.7,0-0.9,0c-0.2,0-0.3-0.1-0.3-0.2c0-0.1,0.2-0.2,0.6-0.2c0,0,0.4,0,1.2,0c0.3,0,0.5-0.1,0.6-0.1
					c0.1-0.1,0.2-0.2,0.3-0.5c0-0.1,0.2-0.4,0.4-1l5.2-12.7c0.3-0.7,0.4-1.1,0.4-1.2c0-0.2-0.4-0.4-1.2-0.4c0,0-0.2,0-0.7,0.1
					c-0.1,0-0.2-0.1-0.2-0.2c0-0.2,0.4-0.3,1.2-0.3c0,0,0.3,0,1,0c0.4,0,0.8,0,1.1,0.1c0.8,0,1.6,0,2.5,0h0.5
					c0.1-0.1,0.2-0.1,0.3-0.1c0.2,0,0.2,0.1,0.2,0.3c0,0.2-0.1,0.2-0.3,0.2c0,0-0.2,0-0.5,0h-0.3c-0.6,0-0.9,0-1,0.1
					c-0.1,0.1-0.4,0.7-0.9,1.9l-5,12.5c-0.1,0.3-0.2,0.6-0.3,0.7c0,0.1-0.1,0.1-0.1,0.2c0,0.3,0.3,0.4,1,0.4c2.2,0,3.8-0.1,4.6-0.3
					c1.2-0.3,2.2-1.2,3-2.7c0.3-0.5,0.5-1,0.6-1.3c0-0.1,0.1-0.2,0.2-0.2C132.5,197.1,132.6,197.2,132.6,197.3z"/>
				<path class="st0" d="M143.8,195.6c0,1.9-0.9,3.6-2.6,5.1c-1.3,1.2-2.7,1.8-4.2,1.8c-1,0-1.8-0.3-2.4-1c-0.6-0.7-1-1.6-1-2.7
					c0-0.9,0.3-1.9,0.8-2.9c0.5-1,1.2-1.8,2.1-2.5c1.4-1.1,2.7-1.6,4-1.6c1,0,1.8,0.4,2.4,1.1C143.5,193.5,143.8,194.4,143.8,195.6z
					 M141.9,194c0-1.2-0.5-1.8-1.6-1.8c-1.3,0-2.5,1-3.5,2.9c-0.9,1.8-1.4,3.5-1.4,5.1c0,1.2,0.5,1.8,1.6,1.8c1.3,0,2.5-0.9,3.4-2.6
					C141.4,197.4,141.9,195.6,141.9,194z"/>
				<path class="st0" d="M154.6,193.1c0,1.2-0.2,2.4-0.7,3.7c-0.5,1.3-1.1,2.4-1.9,3.4c-1.2,1.5-2.4,2.2-3.7,2.2
					c-0.7,0-1.3-0.2-1.7-0.6c-0.4-0.4-0.7-0.9-0.7-1.5c0-0.7,0.3-1.8,0.9-3.3l1.4-3.3c0.2-0.4,0.3-0.7,0.3-0.9
					c0-0.3-0.2-0.5-0.6-0.5c-0.3,0-0.7,0.2-1.3,0.7c-0.5,0.5-0.9,1-1.2,1.4c-0.1,0.2-0.2,0.4-0.4,0.4c-0.1,0-0.2-0.1-0.2-0.2
					c0-0.4,0.4-0.9,1.3-1.8c0.8-0.8,1.6-1.2,2.4-1.2c0.5,0,0.9,0.1,1.2,0.4c0.3,0.3,0.5,0.6,0.5,1c0,0.4-0.2,1-0.5,1.7l-1.3,3.1
					c-0.4,1-0.7,1.9-0.7,2.6c0,0.8,0.3,1.2,1,1.2c1,0,2.1-0.9,3.3-2.8c1.2-1.8,1.8-3.6,1.8-5.1c0-0.5-0.1-0.8-0.3-0.8
					c0,0-0.1,0-0.2,0.1c-0.1,0-0.3,0.1-0.3,0.1c-0.4,0-0.6-0.2-0.6-0.6c0-0.3,0.1-0.5,0.3-0.7c0.2-0.2,0.4-0.3,0.7-0.3
					C154.2,191.7,154.6,192.2,154.6,193.1z"/>
				<path class="st0" d="M164.7,193.3c0,0.9-0.5,1.6-1.4,2.1c-0.9,0.6-2.1,0.8-3.5,0.8c-0.5,0-1.1,0-1.7-0.1
					c-0.6,1.2-0.9,2.4-0.9,3.4c0,1.4,0.6,2.1,1.9,2.1c1,0,1.9-0.5,2.9-1.5c0.2-0.2,0.3-0.3,0.4-0.3c0.1,0,0.1,0,0.1,0.1
					c0,0.4-0.4,0.8-1.1,1.4c-0.9,0.6-1.8,0.9-2.7,0.9c-1,0-1.9-0.3-2.6-0.9c-0.7-0.6-1-1.4-1-2.3c0-1.8,1-3.5,2.9-5.2
					c1.7-1.5,3.2-2.2,4.6-2.2C164,191.7,164.7,192.3,164.7,193.3z M163,192.9c0-0.5-0.2-0.7-0.7-0.7c-0.5,0-1,0.2-1.5,0.6
					c-0.9,0.7-1.7,1.8-2.5,3.1c0.2,0,0.4,0,0.6,0c0.9,0,1.8-0.3,2.6-0.8C162.5,194.5,163,193.8,163,192.9z"/>
			</g>
			<g>
				<path class="st0" d="M15,236.1c0,2.2-0.7,4.3-2,6.3c-1.3,2-2.7,3-4.2,3c-0.5,0-1-0.2-1.3-0.5c-0.4-0.3-0.6-0.8-0.7-1.3
					c0-0.2-0.1-0.6-0.1-1.2c-0.9,2-2.1,3-3.6,3c-0.6,0-1.2-0.2-1.6-0.6c-0.4-0.4-0.6-0.9-0.6-1.5c0-0.8,0.2-1.7,0.7-2.7l1.4-3.3
					c0.2-0.6,0.4-1,0.4-1.4c0-0.4-0.2-0.6-0.6-0.6c-0.3,0-0.7,0.2-1.2,0.6c-0.5,0.4-0.9,0.9-1.1,1.4c-0.1,0.2-0.2,0.3-0.3,0.3
					c-0.1,0-0.1-0.1-0.1-0.2c0-0.3,0.3-0.8,0.9-1.4c0.8-0.8,1.7-1.3,2.6-1.3c1.2,0,1.8,0.5,1.8,1.4c0,0.6-0.3,1.5-0.8,2.7l-1.4,3.1
					c-0.4,0.8-0.6,1.5-0.6,2c0,0.7,0.3,1,0.8,1c1.3,0,2.7-1.7,4.1-5l1.2-2.9l0.5-1.4c0-0.2,0.2-0.3,0.3-0.3l0.3,0l0.6-0.1L11,235
					c0.2,0,0.2,0,0.2,0c0.1,0,0.2,0,0.2,0.1c0,0.1,0,0.1-0.1,0.2c-0.1,0.2-0.2,0.4-0.3,0.6l-2.3,5.6c-0.4,0.9-0.5,1.6-0.5,2.2
					c0,0.8,0.3,1.2,1,1.2c1.2,0,2.4-1.1,3.8-3.4c1-1.7,1.5-3.3,1.5-4.9c0-0.4-0.1-0.5-0.3-0.5c0,0-0.1,0-0.2,0.1c0,0-0.1,0-0.2,0
					c-0.5,0-0.7-0.2-0.7-0.6c0-0.2,0.1-0.4,0.3-0.6c0.2-0.2,0.4-0.3,0.7-0.3C14.7,234.6,15,235.1,15,236.1z"/>
				<path class="st0" d="M21.4,234.8c0,0,0,0.1-0.1,0.3c-0.1,0.2-0.3,0.6-0.6,1.2l-2.8,6.3c-0.4,0.8-0.6,1.4-0.6,1.6
					c0,0.4,0.2,0.6,0.7,0.6c0.3,0,0.7-0.1,1-0.3c0.4-0.2,0.7-0.5,0.9-0.8c0.1-0.2,0.3-0.3,0.3-0.3c0.1,0,0.1,0,0.1,0.1
					c0,0.2-0.2,0.5-0.7,0.9c-0.7,0.6-1.4,0.9-2.3,0.9c-0.6,0-1-0.1-1.4-0.4c-0.4-0.3-0.5-0.7-0.5-1.1c0-0.4,0.2-1,0.6-1.9l2.5-5.6
					c0.1-0.3,0.2-0.5,0.3-0.6c0-0.1,0.1-0.1,0.1-0.2c0-0.1-0.4-0.2-1.1-0.3c-0.1,0-0.2-0.1-0.2-0.2c0-0.1,0.1-0.2,0.2-0.2
					c0,0,0.1,0,0.4,0c0.2,0,0.6,0,1.1,0c0.7,0,1.1-0.1,1.4-0.2c0.2-0.1,0.3-0.1,0.3-0.1C21.4,234.6,21.4,234.7,21.4,234.8z
					 M23.1,230.3c0,0.7-0.3,1-0.9,1c-0.3,0-0.6-0.1-0.8-0.3c-0.2-0.2-0.3-0.5-0.3-0.8c0-0.7,0.4-1,1.1-1
					C22.8,229.3,23.1,229.6,23.1,230.3z"/>
				<path class="st0" d="M29.2,234.9c0,0.2-0.3,0.3-1,0.4h-0.9h-0.4l-3.2,7.3c-0.4,0.8-0.5,1.3-0.5,1.5c0,0.3,0.2,0.5,0.7,0.5
					c0.7,0,1.4-0.4,1.9-1.1c0.1-0.2,0.2-0.2,0.3-0.2c0.1,0,0.2,0.1,0.2,0.2c0,0.2-0.3,0.5-0.8,1c-0.6,0.5-1.3,0.8-2.2,0.8
					c-0.6,0-1-0.1-1.4-0.4c-0.4-0.3-0.5-0.7-0.5-1.1c0-0.3,0.2-0.8,0.6-1.6l3.1-6.7h-1c-0.3,0-0.4-0.1-0.4-0.2
					c0-0.2,0.1-0.3,0.3-0.3h0.2c0.1,0,0.2,0,0.4,0c0.2,0,0.4,0,0.6,0l0.4-1c0.1-0.4,0.3-0.5,0.3-0.5c0.1,0,0.2,0,0.4,0
					c0.2,0,0.3,0,0.4,0c0.2,0,0.4-0.1,0.8-0.2c0.1,0,0.1,0,0.2,0c0.1,0,0.1,0,0.1,0.1l-0.3,0.6l-0.5,1.1h0.6h0.9c0.1,0,0.2,0,0.3,0
					c0.1,0,0.2,0,0.2,0C29.1,234.7,29.2,234.8,29.2,234.9z"/>
				<path class="st0" d="M38.7,243.2c0,0.1-0.2,0.3-0.5,0.6c-1.1,1-2.2,1.4-3.1,1.4c-0.4,0-0.8-0.1-1.1-0.4c-0.3-0.2-0.4-0.6-0.4-1
					c0-0.3,0.2-0.9,0.6-1.8l2.1-4.7c0.4-0.8,0.5-1.3,0.5-1.5c0-0.5-0.3-0.7-0.8-0.7c-0.7,0-1.5,0.4-2.4,1.3
					c-0.7,0.7-1.3,1.3-1.6,1.9c-0.4,0.6-0.8,1.4-1.3,2.6l-1.6,3.5c-0.1,0.3-0.2,0.5-0.3,0.5c0,0-0.1,0.1-0.3,0.1c-0.1,0-0.3,0-0.6,0
					c-0.5,0-0.8,0-0.8,0c-0.1,0-0.1,0-0.2,0c-0.1,0-0.1,0-0.1-0.1c0-0.1,0.1-0.2,0.2-0.5l6.6-15c0.2-0.5,0.4-0.9,0.4-0.9
					c0-0.1,0-0.2-0.1-0.2c-0.1,0-0.3,0-0.8,0c-0.4,0-0.6-0.1-0.6-0.2c0-0.1,0.1-0.1,0.2-0.1c0.1,0,0.2,0,0.3,0h1.8c0.4,0,0.7,0,1,0
					c0.2,0,0.3,0,0.4,0c0.1,0,0.2,0.1,0.2,0.2c0,0.1,0,0.2-0.1,0.3c-0.1,0.3-0.2,0.5-0.3,0.6l-3.9,8.6c1-1.1,1.8-1.9,2.5-2.4
					c0.7-0.4,1.4-0.7,2.1-0.7c0.6,0,1.1,0.1,1.5,0.4c0.4,0.3,0.6,0.6,0.6,1.1c0,0.5-0.2,1.1-0.6,2l-2.2,5c-0.3,0.6-0.4,1-0.4,1.1
					c0,0.2,0.1,0.4,0.4,0.4c0.5,0,1.3-0.4,2.2-1.2c0.2-0.2,0.4-0.3,0.5-0.3C38.6,243.1,38.7,243.1,38.7,243.2z"/>
				<path class="st0" d="M80.3,221.4c0,0.4-0.1,0.5-0.4,0.5c-0.1,0-0.2,0-0.4-0.1c-0.1,0-0.2,0-0.3,0c-0.1,0-0.3,0-0.3,0H78
					c-0.1,0-0.2,0-0.4,0c-0.3,0-0.5,0.2-0.7,0.5c-0.4,0.9-0.9,1.9-1.3,3L69.3,242c0,0.2-0.1,0.4-0.3,0.8c0,0,0,0.2-0.1,0.3
					c-0.1,0.2-0.2,0.4-0.3,0.8c-0.1,0.1-0.1,0.2-0.1,0.2c0,0.3,0.3,0.4,0.9,0.4h0.5h0.8h0.7c0.1,0,0.1,0.1,0.1,0.2
					c0,0.3-0.2,0.4-0.5,0.4h-1h-7.4c-0.2,0-0.3-0.1-0.3-0.2c0-0.3,0.3-0.4,0.9-0.4c0.6,0,1.1-0.1,1.5-0.2c0.2-0.1,0.4-0.3,0.6-0.8
					c0.6-1.4,1.1-2.9,1.7-4.3l6.7-17c0,0-1.2,1.7-3.4,5L59,243.9c-0.4,0.6-0.7,0.9-0.9,0.9c-0.2,0-0.3-0.2-0.3-0.5l0.1-0.4v-1.1
					l0.9-17.5c0-0.9,0.1-1.4,0.1-1.7c0-0.5,0-0.8-0.1-0.8c0,0-0.1,0.2-0.2,0.3c-0.1,0.5-0.3,1-0.6,1.7l-6.9,18.7
					c0,0.1-0.1,0.2-0.1,0.3c0,0.3,0.1,0.4,0.3,0.5c0.2,0.1,0.8,0.1,1.7,0h0.6c0.2,0,0.2,0.1,0.2,0.2c0,0.2-0.1,0.4-0.4,0.4
					c-0.3,0-0.5,0-0.6,0h-2.2c-1.6,0-2.8,0-3.6,0c-0.1,0-0.3,0-0.5,0c-0.2,0-0.3-0.1-0.3-0.2c0-0.2,0.2-0.3,0.5-0.3
					c0.1,0,0.2,0,0.4,0c0.1,0,0.5,0,1.1,0c0.8,0,1.3-0.1,1.5-0.3c0.2-0.2,0.5-1,1-2.3l6.9-18.5c0.1-0.2,0.2-0.5,0.3-0.8
					c0.1-0.1,0.1-0.2,0.2-0.3c0-0.1-0.1-0.2-0.4-0.3c-0.3-0.1-0.5-0.2-0.8-0.2c-0.4,0-1,0-2,0h-0.1c-0.2,0-0.2-0.1-0.2-0.4
					c0-0.2,0.1-0.3,0.4-0.3c0.2,0,0.3,0,0.4,0c0.3,0,1.5,0.1,3.5,0.1c1.8,0,2.7,0,2.8-0.1H62c0.1,0,0.2,0.1,0.2,0.3
					c0,0.3,0,1-0.1,1.9L61.3,239c0.1-0.2,0.4-0.5,0.8-1.1l0.8-1.1l10.4-15.5h2.6l4-0.1C80.1,221.1,80.3,221.2,80.3,221.4z"/>
				<path class="st0" d="M92,230.4c0,0.1-0.1,0.3-0.3,0.7l-4.5,10.3c-0.4,1-0.7,1.7-0.7,2.3c0,0.6,0.3,0.9,0.9,0.9
					c0.9,0,1.8-0.6,2.7-1.8c0.2-0.3,0.3-0.4,0.4-0.4c0.1,0,0.1,0,0.1,0.1c0,0.3-0.3,0.7-0.8,1.2c-1,1.1-2.2,1.6-3.6,1.6
					c-0.7,0-1.3-0.2-1.7-0.5c-0.4-0.3-0.7-0.8-0.7-1.3c0-0.3,0.1-0.7,0.2-1.2c-1.4,2.1-3.1,3.2-5,3.2c-1.2,0-2.2-0.4-2.9-1.1
					c-0.8-0.8-1.1-1.7-1.1-2.9c0-1.3,0.4-2.7,1.3-4.3c0.9-1.6,2-3,3.5-4.3c2-1.7,3.8-2.6,5.4-2.6c1.7,0,2.7,0.8,2.9,2.5l0.9-1.8
					c0.2-0.4,0.3-0.5,0.5-0.5c0,0,0.2,0,0.4,0.1c0.2,0,0.4,0.1,0.5,0.1c0.5,0,0.9-0.1,1.2-0.2c0.1-0.1,0.2-0.1,0.2-0.1
					C91.9,230.2,92,230.2,92,230.4z M87.7,233.2c0-0.7-0.2-1.3-0.6-1.7c-0.4-0.4-1-0.6-1.6-0.6c-1.1,0-2.2,0.7-3.3,2
					c-1.2,1.5-2.2,3.1-2.9,4.8c-0.7,1.7-1.1,3.2-1.1,4.5c0,1.5,0.6,2.3,1.9,2.3c0.7,0,1.5-0.4,2.4-1.2c0.9-0.8,1.6-1.8,2.1-3
					l2.7-5.7C87.5,233.9,87.7,233.5,87.7,233.2z"/>
				<path class="st0" d="M110.2,231.3c0,0.8-0.4,1.2-1.2,1.2c-0.4,0-0.6-0.2-0.8-0.7c0-0.1-0.1-0.1-0.2-0.1c-0.2,0-0.7,0.6-1.5,1.9
					l-3.5,5.8c-0.1,0.3-1.8,2.7-4.8,7.4c-1.6,2.5-3.3,4.4-5,5.8c-1,0.8-2,1.2-3,1.2c-1,0-1.5-0.4-1.5-1.1c0-0.4,0.1-0.7,0.4-1
					c0.3-0.3,0.6-0.4,1-0.4c0.3,0,0.5,0,0.6,0.1c0.1,0.1,0.1,0.4,0.2,0.8c0,0.3,0.2,0.5,0.5,0.5c0.4,0,1-0.4,1.9-1.1
					c0.9-0.7,1.7-1.6,2.4-2.6c1.1-1.5,1.7-2.8,1.7-3.9c0-0.3,0-0.6,0-0.9v-0.8v-9.9c0-1.6-0.3-2.4-1-2.4c-0.8,0-1.6,0.9-2.4,2.6
					c-0.3,0.6-0.5,1-0.7,1c-0.2,0-0.3-0.1-0.3-0.3c0-0.5,0.3-1.2,1-2.2c1-1.5,2.2-2.3,3.6-2.3c1,0,1.7,0.3,2,1
					c0.2,0.5,0.3,1.4,0.3,2.6v0.9l-0.1,6.1c0,0.8,0,1.7,0.1,2.5l0.5-0.8c0.2-0.4,0.6-1,1.1-1.9l1.1-1.7l3-4.9
					c1.1-1.8,1.8-2.9,2.2-3.3c0.3-0.4,0.8-0.6,1.3-0.6C109.8,230.1,110.2,230.5,110.2,231.3z"/>
				<path class="st0" d="M129.8,220.8c0,0.1-0.1,0.1-0.1,0.2c-0.1,0.2-0.2,0.4-0.4,0.8l-7.8,19c-0.6,1.4-0.9,2.3-0.9,2.7
					c0,0.6,0.4,1,1.1,1c1.1,0,2-0.6,2.8-1.8c0.3-0.4,0.4-0.6,0.5-0.6c0.2,0,0.2,0.1,0.2,0.3c0,0.4-0.4,0.9-1.2,1.6
					c-1,0.9-2.1,1.3-3.5,1.3c-1.7,0-2.6-0.7-2.6-2.2c0-0.3,0-0.6,0-1c-0.8,1.2-1.6,2.1-2.4,2.6c-0.8,0.5-1.7,0.8-2.7,0.8
					c-1.3,0-2.3-0.4-3.1-1.2c-0.8-0.8-1.2-1.9-1.2-3.2c0-2.7,1.3-5.2,3.8-7.6c2.3-2.2,4.5-3.3,6.6-3.3c1.5,0,2.4,0.7,2.9,2.1
					l0.2-0.4l0.2-0.5l3.9-9.5c0.1-0.1,0.1-0.2,0.1-0.3c0-0.2-0.1-0.3-0.2-0.3c-0.1,0-0.6-0.1-1.3-0.1c-0.4,0-0.7-0.1-0.7-0.2
					c0-0.1,0.1-0.2,0.4-0.2h0.4c0.3,0,0.7,0,1.3,0c0.6,0,1,0,1.2,0c0.9,0,1.4,0,1.7-0.1c0.1,0,0.2,0,0.3,0
					C129.7,220.5,129.8,220.6,129.8,220.8z M121.5,232.9c0-0.5-0.2-1-0.7-1.4c-0.5-0.4-1-0.6-1.6-0.6c-1.7,0-3.4,1.4-5.2,4.3
					c-1.7,2.7-2.5,4.9-2.5,6.8c0,1.7,0.8,2.5,2.3,2.5c1.3,0,2.6-0.9,3.9-2.8c0.9-1.3,1.7-2.8,2.4-4.6l0.8-2
					C121.3,233.9,121.5,233.2,121.5,232.9z"/>
				<path class="st0" d="M134.3,230.4c0,0.1-0.1,0.2-0.2,0.4c-0.2,0.3-0.4,0.8-0.8,1.7l-4,9c-0.5,1.2-0.8,2-0.8,2.3
					c0,0.6,0.3,0.9,1,0.9c0.4,0,0.9-0.2,1.5-0.5c0.6-0.3,1-0.7,1.3-1.1c0.2-0.3,0.4-0.4,0.5-0.4c0.1,0,0.2,0.1,0.2,0.2
					c0,0.3-0.3,0.7-1,1.2c-1,0.8-2.1,1.2-3.3,1.2c-0.8,0-1.5-0.2-2-0.6c-0.5-0.4-0.8-0.9-0.8-1.6c0-0.6,0.3-1.5,0.9-2.8l3.6-8
					c0.1-0.4,0.3-0.7,0.4-0.9c0.1-0.1,0.1-0.2,0.1-0.2c0-0.2-0.5-0.3-1.5-0.4c-0.2,0-0.3-0.1-0.3-0.2c0-0.2,0.1-0.3,0.3-0.3
					c0,0,0.2,0,0.5,0.1c0.3,0,0.8,0.1,1.5,0.1c1,0,1.6-0.1,2-0.2c0.2-0.1,0.4-0.1,0.5-0.1C134.3,230.1,134.3,230.2,134.3,230.4z
					 M136.7,224c0,1-0.4,1.4-1.3,1.4c-0.5,0-0.8-0.1-1.1-0.4c-0.3-0.3-0.4-0.6-0.4-1.1c0-0.9,0.5-1.4,1.6-1.4
					C136.3,222.5,136.7,223,136.7,224z"/>
				<path class="st0" d="M149.8,232.9c0,0.6-0.3,1.5-0.9,2.9l-2.8,6.3c-0.3,0.7-0.5,1.2-0.5,1.5c0,0.5,0.3,0.7,0.8,0.7
					c0.7,0,1.6-0.5,2.9-1.6c0.1-0.1,0.2-0.1,0.3-0.1c0.1,0,0.2,0.1,0.2,0.2c0,0.3-0.4,0.7-1.1,1.2c-1,0.7-2.2,1.1-3.3,1.1
					c-0.7,0-1.3-0.2-1.8-0.5c-0.5-0.3-0.7-0.7-0.7-1.2c0-0.4,0.2-1.1,0.7-2.1l2.7-6.2c0.7-1.5,1-2.5,1-3c0-0.8-0.4-1.2-1.2-1.2
					c-1.1,0-2.3,0.8-3.7,2.3c-1.1,1.1-2.1,2.7-3,4.8l-2.8,6.5c-0.1,0.3-0.3,0.5-0.4,0.5c0,0-0.3,0-0.8,0c-0.1,0-0.2,0-0.4,0
					c-0.2,0-0.5,0-0.9,0c-0.1,0-0.1,0-0.2,0c-0.2,0-0.2-0.1-0.2-0.2c0,0,0-0.1,0.1-0.2l0.2-0.5l5.3-12.6c0.1-0.1,0.1-0.2,0.2-0.3
					c0-0.2-0.3-0.3-0.9-0.3c-0.7,0-1-0.1-1-0.4c0-0.2,0.1-0.2,0.4-0.2c0.2,0,0.4,0,0.8,0.1c0.3,0,0.6,0.1,0.8,0.1
					c1.2,0,2-0.1,2.4-0.3c0.2-0.1,0.3-0.1,0.3-0.1c0.1,0,0.2,0.1,0.2,0.2c0,0.1,0,0.1,0,0.2l-1.3,3.2c0.2-0.2,0.4-0.5,0.8-0.9
					c1.7-1.8,3.3-2.7,4.9-2.7c0.9,0,1.7,0.3,2.2,0.8C149.5,231.4,149.8,232.1,149.8,232.9z"/>
				<path class="st0" d="M159.5,230.4c0,0.1-0.1,0.2-0.2,0.4c-0.2,0.3-0.4,0.8-0.8,1.7l-4,9c-0.5,1.2-0.8,2-0.8,2.3
					c0,0.6,0.3,0.9,1,0.9c0.4,0,0.9-0.2,1.5-0.5c0.6-0.3,1-0.7,1.3-1.1c0.2-0.3,0.4-0.4,0.5-0.4c0.1,0,0.2,0.1,0.2,0.2
					c0,0.3-0.3,0.7-1,1.2c-1,0.8-2.1,1.2-3.3,1.2c-0.8,0-1.5-0.2-2-0.6c-0.5-0.4-0.8-0.9-0.8-1.6c0-0.6,0.3-1.5,0.9-2.8l3.6-8
					c0.1-0.4,0.3-0.7,0.4-0.9c0.1-0.1,0.1-0.2,0.1-0.2c0-0.2-0.5-0.3-1.5-0.4c-0.2,0-0.3-0.1-0.3-0.2c0-0.2,0.1-0.3,0.3-0.3
					c0,0,0.2,0,0.5,0.1c0.3,0,0.8,0.1,1.5,0.1c1,0,1.6-0.1,2-0.2c0.2-0.1,0.4-0.1,0.5-0.1C159.4,230.1,159.5,230.2,159.5,230.4z
					 M161.9,224c0,1-0.4,1.4-1.3,1.4c-0.5,0-0.8-0.1-1.1-0.4c-0.3-0.3-0.4-0.6-0.4-1.1c0-0.9,0.5-1.4,1.6-1.4
					C161.4,222.5,161.9,223,161.9,224z"/>
				<path class="st0" d="M174.9,232.9c0,0.6-0.3,1.5-0.9,2.9l-2.8,6.3c-0.3,0.7-0.5,1.2-0.5,1.5c0,0.5,0.3,0.7,0.8,0.7
					c0.7,0,1.6-0.5,2.9-1.6c0.1-0.1,0.2-0.1,0.3-0.1c0.1,0,0.2,0.1,0.2,0.2c0,0.3-0.4,0.7-1.1,1.2c-1,0.7-2.2,1.1-3.3,1.1
					c-0.7,0-1.3-0.2-1.8-0.5c-0.5-0.3-0.7-0.7-0.7-1.2c0-0.4,0.2-1.1,0.7-2.1l2.7-6.2c0.7-1.5,1-2.5,1-3c0-0.8-0.4-1.2-1.2-1.2
					c-1.1,0-2.3,0.8-3.7,2.3c-1.1,1.1-2.1,2.7-3,4.8l-2.8,6.5c-0.1,0.3-0.3,0.5-0.4,0.5c0,0-0.3,0-0.8,0c-0.1,0-0.2,0-0.4,0
					c-0.2,0-0.5,0-0.9,0c-0.1,0-0.1,0-0.2,0c-0.2,0-0.2-0.1-0.2-0.2c0,0,0-0.1,0.1-0.2l0.2-0.5l5.3-12.6c0.1-0.1,0.1-0.2,0.2-0.3
					c0-0.2-0.3-0.3-0.9-0.3c-0.7,0-1-0.1-1-0.4c0-0.2,0.1-0.2,0.4-0.2c0.2,0,0.4,0,0.8,0.1c0.3,0,0.6,0.1,0.8,0.1
					c1.2,0,2-0.1,2.4-0.3c0.2-0.1,0.3-0.1,0.3-0.1c0.1,0,0.2,0.1,0.2,0.2c0,0.1,0,0.1,0,0.2l-1.3,3.2c0.2-0.2,0.4-0.5,0.8-0.9
					c1.7-1.8,3.3-2.7,4.9-2.7c0.9,0,1.7,0.3,2.2,0.8C174.6,231.4,174.9,232.1,174.9,232.9z"/>
				<path class="st0" d="M192.5,231.5c0,0.7-0.3,1.1-1,1.1c-0.6,0-1-0.3-1-0.9c0-0.1,0-0.1,0-0.2c0-0.1,0-0.2,0.1-0.3
					c0-0.1-0.1-0.2-0.2-0.2c-0.2,0-0.6,0.2-1,0.7c-0.4,0.5-0.6,0.9-0.6,1.1c0,0.1,0,0.3,0.1,0.4c0.3,0.6,0.4,1.3,0.4,2.1
					c0,1.6-0.5,3-1.6,4.1c-1.1,1.1-2.5,1.7-4.3,1.7c-1.3,0-2.5-0.4-3.6-1.1c-1.8,0.6-2.6,1.3-2.6,2.1c0,0.5,0.3,0.8,1,0.9
					c1.3,0.2,2,0.3,2.2,0.2h2.9c1.3,0,2.2,0.1,2.8,0.2c1.7,0.4,2.5,1.6,2.5,3.7c0,1.8-0.7,3.4-2,4.7c-1.4,1.4-3.3,2.1-5.8,2.1
					c-1.8,0-3.4-0.4-4.7-1.2c-1.7-1-2.5-2.2-2.5-3.5c0-0.9,0.4-1.7,1.3-2.3c0.4-0.3,1.2-0.7,2.6-1.2c-1.3-0.5-2-1.4-2-2.4
					c0-1.7,1.3-3,4-3.7c-0.7-1-1.1-1.9-1.1-2.9c0-1.8,0.6-3.3,1.9-4.6c1.3-1.3,2.8-1.9,4.6-1.9c1.4,0,2.5,0.6,3.5,1.9
					c0.8-1.3,1.7-2,2.7-2C192,230.1,192.5,230.6,192.5,231.5z M187.5,248.4c0-0.6-0.2-1.1-0.5-1.5c-0.4-0.4-0.8-0.7-1.4-0.8
					c-0.8-0.2-2-0.2-3.6-0.2h-3.9c-1.4,0.7-2.1,1.8-2.1,3.3c0,1.3,0.5,2.3,1.4,3.1c0.9,0.8,2.1,1.2,3.6,1.2c1.8,0,3.3-0.5,4.6-1.5
					C186.9,250.9,187.5,249.7,187.5,248.4z M186.9,233.2c0-1.6-0.7-2.4-2-2.4c-1.1,0-2.1,1-3,2.9c-0.8,1.7-1.1,3.2-1.1,4.7
					c0,1.5,0.7,2.2,2.2,2.2c1.1,0,2-0.9,2.8-2.7C186.6,236.2,186.9,234.7,186.9,233.2z"/>
			</g>
		</g>
	</g>
	<g>
		<path class="st0" d="M93.4,70.6"/>
		<g>
			<g>
				<g>
					<g>
						<path class="st0" d="M160.1,83.1l0,0.4c0,0.1,0,0.1,0.1,0.2l0.9,0.7c0.1,0,0.1,0.1,0.1,0.1c0,0,0,0.1-0.1,0.1l-3.1-0.4
							c0,0-0.1,0-0.1-0.1c0-0.1,0.1-0.1,0.1-0.1l1.1-0.4c0.1,0,0.1-0.1,0.1-0.2l0-0.4l-4.4-0.6l-0.1,0.9c0,0.2,0,0.4,0.2,0.5
							l2.7,1.2c0.1,0,0.1,0.1,0.1,0.1c0,0-0.1,0.1-0.1,0.1l-3.6-0.5c-0.1,0-0.1-0.1-0.1-0.1l0.5-4.1c0-0.1,0.1-0.1,0.1-0.1
							c0,0,0.1,0.1,0.1,0.1l0.4,0.5c0.1,0.1,0.2,0.2,0.4,0.2l8.8,1.1c0.2,0,0.3,0,0.4-0.1l0.5-0.4c0,0,0.1-0.1,0.1-0.1
							c0,0,0.1,0,0.1,0.1l-0.5,4.1c0,0.1-0.1,0.1-0.1,0.1l-3.6-0.5c-0.1,0-0.1,0-0.1-0.1c0-0.1,0.1-0.1,0.1-0.1l2.8-0.5
							c0.2,0,0.3-0.2,0.3-0.4l0.1-0.9L160.1,83.1z"/>
						<path class="st0" d="M162.4,92.5c0.2,0,0.3,0.1,0.4,0l0.5-0.4c0.1,0,0.1-0.1,0.1,0c0,0,0.1,0.1,0.1,0.1l-0.7,2.4
							c0,0.1-0.1,0.1-0.1,0.1c0,0-0.1-0.1-0.1-0.1l-0.3-0.6c-0.1-0.1-0.2-0.2-0.4-0.2l-7.6-2.2c-0.6-0.2-1.2-0.3-1.4,0.4
							c-0.2,0.6,0.4,0.9,1,1.1l7.6,2.2c0.2,0.1,0.3,0.1,0.4,0l0.5-0.4c0.1,0,0.1-0.1,0.1,0c0,0,0.1,0.1,0.1,0.1l-0.6,2.1
							c0,0.1-0.1,0.1-0.1,0.1c0,0-0.1-0.1-0.1-0.1l-0.3-0.6c-0.1-0.1-0.2-0.2-0.4-0.2l-8-2.3c-0.9-0.3-1.3-1.2-1-2.2
							c0.4-1.2,1.2-1.7,2.1-1.4L162.4,92.5z"/>
						<path class="st0" d="M150.2,100.2c-0.2-0.1-0.3-0.1-0.4,0l-0.6,0.3c-0.1,0-0.1,0.1-0.2,0c0,0-0.1-0.1,0-0.1l1.1-2.3
							c0-0.1,0.1-0.1,0.1-0.1c0,0,0,0.1,0.1,0.2l0.2,0.6c0,0.1,0.2,0.2,0.3,0.3l8,3.8c0.2,0.1,0.3,0.1,0.4,0l0.6-0.3
							c0.1,0,0.1-0.1,0.2,0c0,0,0.1,0.1,0,0.1l-0.9,1.8c-0.7,1.5-1.8,2-3.5,1.1c-1.5-0.7-1.8-1.5-1.8-2.2c-0.5,0.4-1.2,0.6-1.9,0.2
							l-2.8-1.3c-0.1,0-0.2,0-0.3,0l-0.7,0.3c-0.1,0-0.2,0.1-0.2,0.1c0,0,0-0.1,0-0.2l0.4-0.8c0.3-0.7,0.8-0.7,1.3-0.5l2.8,1.3
							c0.6,0.3,1.2,0.1,1.5-0.4l0.1-0.2L150.2,100.2z M154.6,102.3l-0.1,0.2c-0.3,0.7,0,1.2,1.6,2c1.3,0.6,1.9,0.6,2.3-0.2l0.1-0.2
							L154.6,102.3z"/>
						<path class="st0" d="M148.1,113.2c-2.3-1.6-4.7-3.4-3.6-5c1.1-1.6,3.7-0.1,6,1.5c1.7,1.2,4.2,3.1,3.1,4.7
							C152.5,115.9,149.8,114.4,148.1,113.2z M149.7,110.7c-3.1-2.1-4.4-2.5-4.6-2.2c-0.3,0.4,0.5,1.4,3.7,3.5
							c2.7,1.8,3.9,2.2,4.2,1.8C153.2,113.5,152.4,112.5,149.7,110.7z"/>
						<path class="st0" d="M147.2,120.8c0.1,0.1,0.2,0.2,0.4,0.2l0.6-0.1c0.1,0,0.1,0,0.2,0c0,0,0,0.1,0,0.1l-1.7,1.8
							c-0.9,0.9-1.9,1.1-3.5-0.4c-1.4-1.3-1.7-2.6-0.8-3.6l0.4-0.4l-3-2.8c-0.1-0.1-0.2-0.2-0.4-0.2l-0.7,0.1c-0.1,0-0.1,0-0.2,0
							c0,0,0-0.1,0-0.1l1.8-1.9c0,0,0.1,0,0.1,0c0,0,0,0.1,0,0.2l0,0.6c0,0.2,0.1,0.3,0.2,0.4L147.2,120.8z M143.4,118.9l-0.3,0.3
							c-0.5,0.5-0.1,1.1,1.1,2.2c1.2,1.1,1.7,1.3,2.1,0.8l0.3-0.3L143.4,118.9z"/>
						<path class="st0" d="M136.3,125.6l-0.3,0.2c-0.1,0-0.1,0.1-0.1,0.2l0.2,1.2c0,0.1,0,0.1,0,0.1c0,0-0.1,0-0.1,0l-1.9-2.4
							c0,0,0-0.1,0-0.1c0,0,0.1,0,0.2,0l1.1,0.5c0.1,0,0.1,0,0.2,0l0.3-0.2l-2.8-3.5l-0.7,0.6c-0.2,0.1-0.2,0.3-0.2,0.5l1.1,2.8
							c0,0.1,0,0.1,0,0.1c0,0-0.1,0-0.1,0l-2.3-2.9c0-0.1,0-0.1,0-0.2l3.3-2.6c0,0,0.1,0,0.1,0c0,0,0,0.1,0,0.2l-0.1,0.6
							c0,0.1,0,0.3,0.1,0.4l5.5,7c0.1,0.1,0.2,0.2,0.4,0.2l0.6,0c0.1,0,0.1,0,0.2,0c0,0,0,0.1,0,0.1l-3.3,2.6c0,0-0.1,0-0.2,0
							l-2.3-2.9c0,0,0-0.1,0-0.1c0,0,0.1,0,0.2,0l2.4,1.6c0.2,0.1,0.3,0.1,0.5,0l0.7-0.6L136.3,125.6z"/>
						<path class="st0" d="M125.6,128.5c0,0.1,0.1,0.1,0.2,0l1-0.6c0,0,0-0.1,0-0.1l-0.6-1.5c0-0.1-0.1-0.2-0.2-0.2l-0.5-0.1
							c-0.1,0-0.2,0-0.2-0.1c0,0,0-0.1,0.1-0.1l1.6-0.9c0.1,0,0.1,0,0.1,0c0,0,0,0.1,0,0.2l-0.2,0.6c0,0.1,0,0.3,0.1,0.4l3.5,9.3
							c0,0.1,0,0.1,0,0.2l-0.5,0.3c-0.1,0-0.2,0-0.2-0.1l-6.1-7.8c-0.1-0.1-0.2-0.2-0.3-0.3l-0.6-0.1c-0.1,0-0.1,0-0.1-0.1
							c0,0,0-0.1,0.1-0.1l2-1.1c0.1,0,0.1,0,0.1,0c0,0,0,0.1,0,0.2l-0.2,0.6c0,0.1,0,0.2,0.1,0.3L125.6,128.5z M126.2,129.2
							c0,0,0,0.1,0,0.1l2.2,2.9l0,0l-1.3-3.4c0-0.1-0.1-0.1-0.1-0.1L126.2,129.2z"/>
						<path class="st0" d="M121.5,138.7c0.1,0.2,0.1,0.3,0.3,0.3l0.5,0.3c0,0,0.1,0,0.2,0.1c0,0,0,0.1-0.1,0.1l-1.8,0.7
							c-0.1,0-0.2,0-0.3-0.2l-3.5-5.4l0,0l1.9,5.2c0.1,0.2,0.1,0.3,0.3,0.3l0.6,0.3c0,0,0.1,0,0.2,0.1c0,0,0,0.1-0.1,0.1l-2,0.7
							c-0.1,0-0.1,0-0.1,0c0-0.1,0-0.1,0.1-0.2l0.2-0.5c0.1-0.1,0.1-0.3,0-0.4l-3.3-9.2c0-0.1,0-0.2,0.1-0.2l0.6-0.2
							c0.1,0,0.3,0,0.4,0.2l4.5,6.9l0,0l-2.5-6.9c-0.1-0.2-0.1-0.3-0.3-0.3l-0.6-0.3c-0.1,0-0.1,0-0.2-0.1c0,0,0-0.1,0.1-0.1l2-0.7
							c0.1,0,0.1,0,0.1,0c0,0.1,0,0.1-0.1,0.2l-0.2,0.5c-0.1,0.1-0.1,0.3,0,0.4L121.5,138.7z"/>
						<path class="st0" d="M101.9,134.4c0-0.2-0.1-0.3-0.2-0.4l-0.5-0.4c0,0-0.1-0.1-0.1-0.1c0,0,0-0.1,0.1-0.1l2.5-0.2
							c0.1,0,0.1,0,0.1,0.1c0,0-0.1,0.1-0.1,0.1l-0.4,0.5c-0.1,0.1-0.1,0.2-0.1,0.4l0.7,8.8c0,0.2,0.1,0.3,0.2,0.4l0.5,0.4
							c0,0,0.1,0.1,0.1,0.1c0,0,0,0.1-0.1,0.1l-2,0.2c-1.7,0.1-2.6-0.6-2.8-2.5c-0.1-1.6,0.4-2.3,1-2.7c-0.6-0.2-1.1-0.7-1.2-1.5
							l-0.3-3.1c0-0.1-0.1-0.2-0.2-0.3l-0.6-0.5c-0.1-0.1-0.1-0.1-0.1-0.2c0,0,0.1,0,0.2-0.1l0.8-0.1c0.7-0.1,1.1,0.4,1.1,0.8
							l0.3,3.1c0.1,0.6,0.5,1.1,1.1,1l0.3,0L101.9,134.4z M102.3,139.2l-0.2,0c-0.8,0.1-1.1,0.7-0.9,2.4c0.1,1.5,0.5,1.9,1.3,1.9
							l0.2,0L102.3,139.2z"/>
						<path class="st0" d="M92,139.4l-0.4,0c-0.1,0-0.1,0-0.2,0.1l-0.6,1c0,0.1-0.1,0.1-0.1,0.1c0,0-0.1,0-0.1-0.1l0.2-3.1
							c0,0,0-0.1,0.1-0.1c0.1,0,0.1,0.1,0.1,0.1l0.5,1.1c0,0.1,0.1,0.1,0.2,0.1l0.4,0l0.3-4.4l-0.9-0.1c-0.2,0-0.4,0.1-0.5,0.2
							l-1.1,2.7c0,0.1-0.1,0.1-0.1,0.1c0,0-0.1-0.1-0.1-0.1l0.3-3.7c0-0.1,0.1-0.1,0.1-0.1l4.2,0.3c0.1,0,0.1,0.1,0.1,0.1
							c0,0-0.1,0.1-0.1,0.1l-0.5,0.4c-0.1,0.1-0.2,0.2-0.2,0.4l-0.7,8.9c0,0.2,0,0.3,0.1,0.4l0.5,0.5c0,0,0.1,0.1,0.1,0.1
							c0,0,0,0.1-0.1,0.1l-4.2-0.3c-0.1,0-0.1-0.1-0.1-0.1l0.3-3.6c0-0.1,0-0.1,0.1-0.1c0.1,0,0.1,0.1,0.1,0.1l0.7,2.8
							c0,0.2,0.2,0.3,0.4,0.3l0.9,0.1L92,139.4z"/>
						<path class="st0" d="M80.4,138.8c0,0,0-0.1,0.1,0c0,0,0.1,0.1,0.1,0.1c0,1.2,0.3,3.2,1.1,3.3c0.4,0.1,0.5-0.2,0.6-0.6
							c0.2-0.7,0.1-1.4-0.5-4c-0.6-2.4-0.6-2.9-0.4-4c0.3-1.5,1.3-1.8,1.9-1.6c0.4,0.1,0.7,0.3,0.8,0.5c0.2,0.1,0.2,0.2,0.3,0.2
							c0.1,0,0.2-0.1,0.6-0.2c0.1,0,0.1-0.1,0.2-0.1c0.1,0,0.1,0,0.1,0.1l-0.8,3.6c0,0,0,0.1-0.1,0.1c0,0-0.1-0.1-0.1-0.1
							c0-1.2-0.1-3.1-1-3.3c-0.3-0.1-0.5,0.2-0.6,0.6c-0.2,1,0,2.1,0.5,4c0.5,1.8,0.6,3,0.3,4c-0.3,1.4-1,1.6-1.9,1.5
							c-0.3-0.1-0.6-0.3-0.8-0.5c-0.1-0.1-0.2-0.1-0.2-0.1c-0.1,0-0.2,0-0.4,0.1c-0.2,0.1-0.3,0.1-0.4,0.1c-0.1,0-0.1-0.1-0.1-0.2
							L80.4,138.8z"/>
						<path class="st0" d="M72,139.3l0.6,0.2c0.1,0,0.2,0,0.2-0.1l1.8-2.4c0,0,0.1-0.1,0.2,0c0.1,0,0.1,0.1,0,0.1l-1.4,3.4
							c0,0-0.1,0-0.1,0l-4.4-1.7c0,0-0.1-0.1-0.1-0.1l1.4-3.5c0-0.1,0.1-0.1,0.1-0.1c0.1,0,0.1,0.1,0.1,0.1l-0.3,3
							c0,0.1,0,0.2,0.1,0.2l0.6,0.2l3.4-8.6c0.1-0.2,0.1-0.3,0-0.4l-0.3-0.6c0-0.1-0.1-0.1-0.1-0.2c0,0,0-0.1,0.1,0l2.3,0.9
							c0.1,0,0.1,0.1,0.1,0.1c0,0-0.1,0.1-0.2,0.1l-0.6,0.2c-0.1,0.1-0.2,0.2-0.3,0.3L72,139.3z"/>
						<path class="st0" d="M65.7,127.7c0,0.1,0,0.1,0.1,0.2l1,0.6c0,0,0.1,0,0.1,0l1-1.3c0.1-0.1,0.1-0.2,0.1-0.3l-0.1-0.5
							c0-0.1-0.1-0.2-0.1-0.2c0,0,0.1-0.1,0.1,0l1.6,0.9c0.1,0,0.1,0.1,0,0.1c0,0-0.1,0.1-0.2,0.1l-0.6,0.1c-0.1,0-0.2,0.1-0.3,0.3
							l-6.2,7.8c-0.1,0.1-0.1,0.1-0.2,0l-0.5-0.3c-0.1,0-0.1-0.1,0-0.2l3.6-9.3c0.1-0.1,0.1-0.3,0-0.4l-0.2-0.6c0-0.1,0-0.1,0-0.2
							c0,0,0.1-0.1,0.1,0l2,1.2c0.1,0,0.1,0.1,0.1,0.1c0,0-0.1,0-0.2,0.1l-0.6,0.1c-0.1,0-0.2,0.1-0.2,0.2L65.7,127.7z M65.5,128.6
							c0,0-0.1,0-0.1,0.1l-1.3,3.4l0,0l2.3-2.9c0,0,0-0.1,0-0.1L65.5,128.6z"/>
						<path class="st0" d="M55.4,129.8c-0.1,0.1-0.2,0.3-0.2,0.4l0.1,0.6c0,0.1,0,0.1,0,0.2c0,0-0.1,0.1-0.1,0l-1.9-1.5
							c-0.1,0,0-0.1,0-0.1c0,0,0.1,0,0.1-0.1l0.7,0c0.1,0,0.2-0.1,0.4-0.2l5-6.2c0.4-0.5,0.7-1,0.1-1.5c-0.5-0.4-1,0-1.4,0.5l-5,6.2
							c-0.1,0.1-0.2,0.3-0.2,0.4l0.1,0.6c0,0.1,0,0.1,0,0.2c0,0-0.1,0.1-0.1,0l-1.7-1.4c0,0,0-0.1,0-0.1c0,0,0.1,0,0.1-0.1l0.7,0
							c0.1,0,0.2-0.1,0.4-0.2l5.2-6.5c0.6-0.7,1.6-0.8,2.4-0.1c1,0.8,1.1,1.7,0.5,2.4L55.4,129.8z"/>
						<path class="st0" d="M53,115.7c0.1-0.1,0.2-0.2,0.2-0.4l0-0.6c0-0.1,0-0.1,0-0.2c0,0,0.1,0,0.1,0l1.7,1.9c0,0,0,0.1,0,0.1
							c0,0-0.1,0-0.2,0l-0.6-0.1c-0.2,0-0.3,0.1-0.4,0.2l-6.6,6c-0.1,0.1-0.2,0.2-0.2,0.4l0,0.6c0,0.1,0,0.1,0,0.2c0,0-0.1,0-0.1,0
							l-1.4-1.5c-1.1-1.2-1.1-2.4,0.3-3.7c1.2-1.1,2.1-1.1,2.7-0.9c-0.2-0.6-0.1-1.3,0.5-1.9l2.3-2.1c0.1-0.1,0.1-0.2,0.1-0.3l0-0.7
							c0-0.1,0-0.2,0-0.2c0,0,0.1,0,0.1,0.1l0.6,0.6c0.5,0.5,0.4,1.1,0,1.4l-2.3,2.1c-0.5,0.4-0.5,1.1-0.2,1.5l0.2,0.2L53,115.7z
							 M49.3,119l-0.2-0.2c-0.5-0.6-1.2-0.4-2.5,0.7c-1.1,1-1.2,1.6-0.7,2.2l0.2,0.2L49.3,119z"/>
						<path class="st0" d="M45.4,108.1c-0.1,0.1-0.1,0.1,0,0.2l0.7,1c0,0,0.1,0,0.1,0l1.5-0.7c0.1,0,0.1-0.1,0.2-0.2l0.1-0.5
							c0-0.1,0-0.2,0.1-0.2c0,0,0.1,0,0.1,0l1,1.6c0,0.1,0,0.1,0,0.1c0,0-0.1,0-0.2,0l-0.6-0.2c-0.1,0-0.3,0-0.4,0.1l-9,4.2
							c-0.1,0-0.1,0-0.2,0l-0.3-0.5c0-0.1,0-0.1,0.1-0.2l7.4-6.7c0.1-0.1,0.2-0.2,0.2-0.4l0.1-0.6c0-0.1,0-0.1,0.1-0.2
							c0,0,0.1,0,0.1,0l1.3,1.9c0,0.1,0,0.1,0,0.1c0,0-0.1,0-0.2,0l-0.6-0.1c-0.1,0-0.2,0-0.3,0.1L45.4,108.1z M44.7,108.8
							c0,0-0.1,0-0.1,0l-2.7,2.4l0,0l3.3-1.5c0.1,0,0.1-0.1,0-0.1L44.7,108.8z"/>
						<path class="st0" d="M34.9,104.7c-0.2,0.1-0.3,0.2-0.3,0.3l-0.2,0.5c0,0,0,0.1-0.1,0.2c0,0-0.1,0-0.1-0.1l-0.8-1.8
							c0-0.1,0-0.2,0.1-0.3l5.2-3.9l0,0l-5,2.2c-0.2,0.1-0.3,0.2-0.3,0.3l-0.2,0.6c0,0,0,0.1-0.1,0.2c0,0-0.1,0-0.1-0.1l-0.9-1.9
							c0-0.1,0-0.1,0-0.1c0.1,0,0.1,0,0.2,0l0.6,0.2c0.1,0,0.3,0,0.4,0l8.9-3.9c0.1,0,0.2,0,0.2,0.1l0.3,0.6c0.1,0.1,0,0.3-0.2,0.4
							l-6.5,4.9l0,0l6.7-2.9c0.2-0.1,0.3-0.2,0.3-0.3l0.2-0.6c0-0.1,0-0.1,0.1-0.2c0,0,0.1,0,0.1,0.1l0.9,1.9c0,0.1,0,0.1,0,0.1
							c-0.1,0-0.1,0-0.2,0l-0.5-0.2c-0.1,0-0.3,0-0.4,0L34.9,104.7z"/>
						<path class="st0" d="M30.3,93.3l0.2,0.6c0,0.1,0.1,0.1,0.2,0.1l3,0.1c0.1,0,0.1,0,0.1,0.1c0,0.1,0,0.1-0.1,0.1l-3.6,0.9
							c0,0-0.1,0-0.1-0.1l-1.2-4.6c0,0,0-0.1,0-0.1l3.6-0.9c0.1,0,0.1,0,0.1,0.1c0,0.1,0,0.1-0.1,0.1L30,91.3
							c-0.1,0.1-0.1,0.1-0.1,0.2l0.2,0.6l8.9-2.3c0.2,0,0.3-0.1,0.4-0.2l0.3-0.6c0-0.1,0.1-0.1,0.1-0.1c0,0,0.1,0,0.1,0.1l0.6,2.4
							c0,0.1,0,0.1-0.1,0.1c0,0-0.1,0-0.2-0.1l-0.5-0.4c-0.1-0.1-0.3-0.1-0.4,0L30.3,93.3z"/>
						<path class="st0" d="M27.2,75.3c0-0.1,0.1-0.2,0.2-0.2l6.4-0.9v0L27.5,73c-0.1,0-0.2-0.1-0.2-0.2l0-2c0-0.1,0-0.1,0.1-0.1
							c0.1,0,0.1,0.1,0.1,0.1l0.4,0.4c0.1,0.1,0.2,0.1,0.4,0.1l8.9,0.2c0.2,0,0.3,0,0.4-0.1l0.4-0.4c0,0,0.1-0.1,0.1-0.1
							c0,0,0.1,0,0.1,0.1l0,2.3c0,0.1,0,0.1-0.1,0.1c-0.1,0-0.1-0.1-0.2-0.1l-0.4-0.3c-0.1-0.1-0.2-0.1-0.4-0.1l-7.1-0.1v0l8,1.4
							c0.1,0,0.1,0.1,0.1,0.1l0,0.4c0,0-0.1,0.1-0.1,0.1l-8,1.2l0,0l7.1,0.1c0.2,0,0.3,0,0.4-0.1l0.4-0.3c0.1,0,0.1-0.1,0.2-0.1
							c0,0,0.1,0,0.1,0.1l0,2c0,0.1,0,0.1-0.1,0.1c-0.1,0-0.1-0.1-0.1-0.1L37.5,77c-0.1-0.1-0.2-0.2-0.4-0.2l-8.9-0.2
							c-0.2,0-0.3,0-0.4,0.1l-0.4,0.4c0,0-0.1,0.1-0.1,0.1c0,0-0.1,0-0.1-0.1L27.2,75.3z"/>
						<path class="st0" d="M37,63.3c-0.1,0-0.1,0-0.2,0.1l-0.2,1.2c0,0,0,0.1,0.1,0.1l1.5,0.5c0.1,0,0.2,0,0.3,0l0.4-0.3
							c0.1,0,0.2-0.1,0.2-0.1c0,0,0.1,0,0.1,0.1l-0.4,1.8c0,0.1-0.1,0.1-0.1,0.1c0,0-0.1-0.1-0.1-0.1l-0.3-0.5
							C38.2,66.1,38,66,37.9,66l-9.4-3.3c-0.1,0-0.1-0.1-0.1-0.2l0.1-0.6c0-0.1,0.1-0.1,0.2-0.1l9.9,0.4c0.1,0,0.3,0,0.4-0.1
							l0.5-0.4c0.1,0,0.1-0.1,0.2-0.1c0,0,0.1,0,0.1,0.1l-0.4,2.3c0,0.1-0.1,0.1-0.1,0.1c0,0-0.1-0.1-0.1-0.1l-0.3-0.5
							c0-0.1-0.1-0.1-0.3-0.1L37,63.3z M36,63.4C36,63.3,36,63.3,36,63.4l-3.7-0.2l0,0l3.4,1.2c0.1,0,0.1,0,0.1,0L36,63.4z"/>
						<path class="st0" d="M37,55.3l-5.5-0.6c-0.1,0-0.2,0-0.4,0.1l-0.6,0.3c-0.1,0-0.1,0.1-0.2,0c0,0,0-0.1,0-0.1l0.8-2.2
							c0-0.1,0.1-0.1,0.1-0.1c0,0,0.1,0.1,0.1,0.2l0.2,0.6c0,0.1,0.1,0.1,0.2,0.1l3.3,0.4l0,0l-2.8-1.8C32.1,52,32,52,32,52
							l-0.6,0.3c-0.1,0-0.1,0.1-0.2,0.1c-0.1,0,0-0.1,0-0.2l0.7-2c0-0.1,0.1-0.1,0.1-0.1c0.1,0,0.1,0.1,0.1,0.2l0.3,0.7
							c0.1,0.1,0.2,0.2,0.3,0.3l4.3,2.7l3.7,1.3c0.2,0.1,0.3,0.1,0.4,0l0.6-0.3c0.1,0,0.1-0.1,0.2-0.1c0,0,0.1,0.1,0,0.1L41,57.4
							c0,0.1-0.1,0.1-0.1,0.1c0,0-0.1-0.1-0.1-0.2l-0.2-0.6c-0.1-0.1-0.2-0.2-0.3-0.3L37,55.3z"/>
						<path class="st0" d="M39.1,38.6c-0.1-0.1-0.3-0.1-0.4-0.1L38,38.6c-0.1,0-0.1,0-0.2,0c0,0-0.1-0.1,0-0.1l1.2-1.8
							c0.9-1.3,2.6-1.3,5.8,0.8c4,2.7,4.2,4,3.3,5.4l-1.2,1.8c0,0.1-0.1,0.1-0.1,0c0,0,0-0.1,0-0.2l-0.1-0.6c0-0.2-0.1-0.3-0.3-0.4
							L39.1,38.6z M47.4,42.7l0.2-0.2c0.4-0.5,0.2-1.3-3.5-3.8c-3.2-2.2-4-2-4.4-1.5l-0.2,0.2L47.4,42.7z"/>
						<path class="st0" d="M45.6,30c-0.1-0.1-0.3-0.2-0.4-0.2l-0.6,0.1c-0.1,0-0.1,0-0.2,0c0,0,0-0.1,0-0.1l1.7-1.9c0,0,0.1,0,0.1,0
							c0,0,0,0.1,0,0.2l0,0.6c0,0.2,0.1,0.3,0.2,0.4l6.6,6c0.1,0.1,0.2,0.2,0.4,0.2l0.6-0.1c0.1,0,0.1,0,0.2,0c0,0,0,0.1,0,0.1
							l-1.7,1.9c0,0-0.1,0-0.1,0c0,0,0-0.1,0-0.2l0-0.6c0-0.2-0.1-0.3-0.2-0.4L45.6,30z"/>
						<path class="st0" d="M51.5,24.1c-0.1-0.1-0.2-0.2-0.4-0.2l-0.6-0.1c-0.1,0-0.1,0-0.2,0c0,0,0-0.1,0-0.1l1.5-1.2
							c0.1-0.1,0.2,0,0.3,0.1l5.2,3.9l0,0l-3.5-4.2c-0.1-0.1-0.2-0.2-0.4-0.2l-0.6-0.1c-0.1,0-0.1,0-0.2,0c0,0,0-0.1,0-0.1l1.6-1.3
							c0.1,0,0.1,0,0.1,0c0,0,0,0.1,0,0.2l0,0.6c0,0.2,0,0.3,0.1,0.4l6.2,7.5c0.1,0.1,0.1,0.2,0,0.2l-0.5,0.4
							c-0.1,0.1-0.3,0.1-0.5-0.1l-6.5-5l0,0l4.6,5.6c0.1,0.1,0.2,0.2,0.4,0.2l0.6,0.1c0.1,0,0.1,0,0.2,0c0,0,0,0.1,0,0.1l-1.6,1.4
							c-0.1,0-0.1,0-0.1,0c0,0,0-0.1,0-0.2l0-0.6c0-0.2,0-0.3-0.2-0.4L51.5,24.1z"/>
						<path class="st0" d="M60.5,17.5c-0.1-0.2-0.2-0.2-0.3-0.3l-0.6-0.1c0,0-0.1,0-0.2-0.1c0,0,0-0.1,0-0.1l2.2-1.3
							c0.1,0,0.1,0,0.1,0c0,0,0,0.1,0,0.2l-0.2,0.6c0,0.1,0,0.3,0.1,0.4l4.6,7.6c0.1,0.2,0.2,0.3,0.3,0.3l0.6,0.1c0,0,0.1,0,0.2,0.1
							c0,0,0,0.1,0,0.1l-2.2,1.3c-0.1,0-0.1,0-0.1,0c0,0,0-0.1,0-0.2l0.2-0.6c0-0.1,0-0.3-0.1-0.4L60.5,17.5z"/>
						<path class="st0" d="M67.9,13.5c-0.1-0.2-0.2-0.2-0.3-0.3l-0.5-0.2c0,0-0.1,0-0.2-0.1c0,0,0-0.1,0.1-0.1l1.8-0.8
							c0.1,0,0.2,0,0.3,0.2l3.8,5.2l0,0l-2.1-5.1c-0.1-0.2-0.1-0.3-0.3-0.3l-0.6-0.2c0,0-0.1,0-0.2-0.1c0,0,0-0.1,0.1-0.1l2-0.8
							c0.1,0,0.1,0,0.1,0c0,0.1,0,0.1,0,0.2l-0.2,0.5c0,0.1,0,0.3,0,0.4l3.8,9c0,0.1,0,0.2-0.1,0.2l-0.6,0.3c-0.1,0.1-0.3,0-0.4-0.2
							l-4.9-6.6l0,0l2.8,6.7c0.1,0.2,0.2,0.2,0.3,0.3l0.6,0.2c0.1,0,0.1,0,0.2,0.1c0,0,0,0.1-0.1,0.1l-2,0.8c-0.1,0-0.1,0-0.1,0
							c0-0.1,0-0.1,0-0.2l0.2-0.5c0-0.1,0-0.3,0-0.4L67.9,13.5z"/>
						<path class="st0" d="M82.1,14.1c0-0.1-0.1-0.2-0.2-0.3l-0.5-0.2c-0.1,0-0.1-0.1-0.1-0.1c0-0.1,0-0.1,0.1-0.1l2.3-0.6
							c0.1,0,0.1,0,0.1,0.1c0,0.1,0,0.1,0,0.2l-0.4,0.5c-0.1,0.1-0.1,0.2-0.1,0.4l1.1,4.5c0,0,0,0.1-0.1,0.1c-0.1,0-0.1,0-0.2,0
							l-0.6-0.3c-0.1,0-0.1,0-0.2,0c0,0-0.1,0-0.1,0.1c-0.3,0.4-0.5,0.6-0.9,0.7c-2,0.5-2.8-2.7-3.4-5.1c-0.4-1.7-1.2-5.1,0.8-5.5
							c0.5-0.1,0.9,0,1.1,0.1c0.1,0,0.2,0,0.3,0c0.1,0,0.2-0.2,0.3-0.3c0.1-0.1,0.2-0.2,0.3-0.3c0.1,0,0.1,0.1,0.2,0.2l0.8,3.4
							c0,0.1,0,0.1-0.1,0.1c-0.1,0-0.1,0-0.2-0.1c-0.6-1-1.7-2.7-2.4-2.5c-0.7,0.2-0.5,1.6,0.2,4.6c1,4.1,1.4,4.8,2,4.7
							c0.5-0.1,0.7-0.7,0.4-2.1L82.1,14.1z"/>
						<path class="st0" d="M102,10.5l-3.6,2.7l1.5,4.4l-3.8-2.8l-3.6,2.7l1.4-4.3l-3.5-2.6l4.4,0l1.3-4.1l1.4,4.1L102,10.5z"/>
						<path class="st0" d="M111.4,7.8c0.1,0,0.2,0.1,0.2,0.3l-0.5,6.4l0,0l2.5-5.9c0-0.1,0.1-0.2,0.2-0.2l2,0.5
							c0.1,0,0.1,0.1,0.1,0.1c0,0.1-0.1,0.1-0.1,0.1l-0.5,0.3c-0.1,0.1-0.2,0.2-0.2,0.4l-2.1,8.6c0,0.2,0,0.3,0,0.4l0.3,0.5
							c0,0.1,0.1,0.1,0.1,0.2c0,0,0,0.1-0.1,0L111,19c-0.1,0-0.1-0.1-0.1-0.1c0-0.1,0.1-0.1,0.1-0.1l0.4-0.3
							c0.1-0.1,0.2-0.2,0.2-0.4l1.7-6.9l0,0l-3.1,7.5c0,0.1-0.1,0.1-0.2,0.1l-0.3-0.1c0,0,0-0.1,0-0.1l0.6-8.1l0,0l-1.7,6.9
							c0,0.2-0.1,0.3,0,0.4l0.2,0.5c0,0.1,0.1,0.1,0.1,0.2c0,0,0,0.1-0.1,0.1l-1.9-0.5c-0.1,0-0.1-0.1-0.1-0.1
							c0-0.1,0.1-0.1,0.1-0.1l0.5-0.3c0.1-0.1,0.2-0.2,0.2-0.4l2.1-8.6c0-0.2,0-0.3,0-0.4l-0.3-0.5c0-0.1-0.1-0.1-0.1-0.2
							c0,0,0-0.1,0.1,0L111.4,7.8z"/>
						<path class="st0" d="M121,20c0-0.1,0-0.1-0.1-0.2l-1.1-0.5c0,0-0.1,0-0.1,0.1l-0.9,1.4c-0.1,0.1-0.1,0.2,0,0.3l0.2,0.5
							c0,0.1,0.1,0.2,0.1,0.2c0,0-0.1,0.1-0.1,0l-1.7-0.7c-0.1,0-0.1-0.1-0.1-0.1c0,0,0.1-0.1,0.2-0.1l0.6-0.2
							c0.1,0,0.2-0.2,0.3-0.3l5.3-8.4c0-0.1,0.1-0.1,0.2-0.1l0.5,0.2c0.1,0,0.1,0.1,0.1,0.2l-2.5,9.6c0,0.1-0.1,0.3,0,0.4l0.3,0.5
							c0,0.1,0.1,0.1,0,0.2c0,0-0.1,0.1-0.1,0l-2.1-0.9c-0.1,0-0.1-0.1-0.1-0.1c0,0,0.1-0.1,0.2-0.1l0.6-0.2c0.1,0,0.2-0.1,0.2-0.2
							L121,20z M121.2,19C121.2,19,121.3,19,121.2,19l1-3.6l0,0l-1.9,3.1c0,0,0,0.1,0,0.1L121.2,19z"/>
						<path class="st0" d="M128.9,21.7l1.8-5.2c0-0.1,0.1-0.2,0-0.4l-0.1-0.7c0-0.1,0-0.1,0-0.2c0,0,0.1,0,0.1,0l2,1.2
							c0.1,0,0.1,0.1,0.1,0.1c0,0-0.1,0.1-0.2,0.1l-0.6,0.1c-0.1,0-0.2,0.1-0.2,0.2l-1.1,3.1l0,0l2.3-2.4c0.1-0.1,0.1-0.2,0.1-0.3
							l-0.2-0.6c0-0.1,0-0.1,0-0.2c0,0,0.1,0,0.2,0l1.8,1.1c0.1,0,0.1,0.1,0.1,0.1c0,0.1-0.1,0.1-0.2,0.1l-0.7,0.1
							c-0.1,0-0.2,0.1-0.3,0.2l-3.6,3.6l-2.1,3.4c-0.1,0.1-0.1,0.3-0.1,0.4l0.2,0.6c0,0.1,0,0.1,0,0.2c0,0-0.1,0.1-0.1,0l-2.2-1.3
							c0,0-0.1-0.1,0-0.1c0,0,0.1,0,0.2-0.1l0.6-0.1c0.2,0,0.2-0.1,0.3-0.3L128.9,21.7z"/>
						<path class="st0" d="M144.7,31.3c0,0-0.1,0-0.1,0c0,0,0-0.1,0-0.1c0.7-1,1.5-2.8,1-3.4c-0.3-0.3-0.5-0.1-0.8,0.2
							c-0.5,0.5-0.9,1.1-1.7,3.6c-0.8,2.3-1,2.7-1.9,3.5c-1.1,1.1-2.1,0.8-2.5,0.3c-0.3-0.3-0.4-0.6-0.4-0.8c0-0.2-0.1-0.3-0.1-0.3
							c0,0-0.2-0.1-0.6-0.1c-0.1,0-0.2,0-0.2-0.1c0,0,0-0.1,0-0.1l2.7-2.6c0,0,0.1-0.1,0.1,0c0,0,0,0.1,0,0.1c-0.6,1-1.6,2.7-1,3.4
							c0.2,0.2,0.5,0.1,0.9-0.2c0.7-0.7,1.1-1.8,1.8-3.6c0.6-1.8,1.2-2.8,2-3.5c1-1,1.8-0.8,2.3-0.2c0.2,0.2,0.3,0.6,0.4,0.9
							c0,0.1,0.1,0.2,0.1,0.2c0,0,0.2,0.1,0.4,0.1c0.2,0,0.3,0,0.4,0.1c0.1,0.1,0,0.1,0,0.2L144.7,31.3z"/>
						<path class="st0" d="M152.1,35.5l-0.3-0.5c-0.1-0.1-0.1-0.1-0.2-0.1l-2.9,1c-0.1,0-0.1,0-0.1-0.1c0-0.1,0-0.1,0-0.1l3-2.1
							c0,0,0.1,0,0.1,0l2.7,3.9c0,0,0,0.1,0,0.1l-3,2.1c-0.1,0-0.1,0-0.1,0c0-0.1,0-0.1,0-0.2l1.9-2.4c0.1-0.1,0.1-0.2,0-0.2
							l-0.3-0.5l-7.6,5.3c-0.1,0.1-0.2,0.2-0.3,0.3l-0.1,0.6c0,0.1,0,0.1,0,0.2c0,0-0.1,0-0.1,0l-1.4-2c0-0.1,0-0.1,0-0.1
							c0,0,0.1,0,0.2,0l0.6,0.2c0.1,0,0.3,0,0.4-0.1L152.1,35.5z"/>
						<path class="st0" d="M153.8,46.7L154,47c0,0.1,0.1,0.1,0.2,0.1l1.2,0.1c0.1,0,0.1,0,0.1,0c0,0,0,0.1-0.1,0.1l-2.8,1.4
							c0,0-0.1,0-0.1,0c0-0.1,0-0.1,0-0.1l0.7-1c0-0.1,0-0.1,0-0.2l-0.2-0.3l-4,2l0.4,0.8c0.1,0.2,0.2,0.3,0.4,0.3l2.9-0.5
							c0.1,0,0.1,0,0.1,0.1c0,0,0,0.1,0,0.1l-3.3,1.6c-0.1,0-0.1,0-0.2-0.1l-1.8-3.7c0-0.1,0-0.1,0-0.1c0,0,0.1,0,0.2,0l0.6,0.2
							c0.1,0.1,0.3,0,0.4-0.1l8-3.9c0.2-0.1,0.3-0.2,0.3-0.3l0.2-0.6c0,0,0-0.1,0.1-0.2c0,0,0.1,0,0.1,0.1l1.8,3.7
							c0,0.1,0,0.1-0.1,0.2l-3.3,1.6c-0.1,0-0.1,0-0.1,0c0-0.1,0-0.1,0-0.2l2.1-2c0.1-0.1,0.2-0.3,0.1-0.5l-0.4-0.8L153.8,46.7z"/>
						<path class="st0" d="M154.4,57.8c0.1,0,0.1-0.1,0.1-0.2l-0.4-1.1c0,0-0.1-0.1-0.1-0.1l-1.6,0.3c-0.1,0-0.2,0.1-0.2,0.2
							l-0.2,0.4c-0.1,0.1-0.1,0.2-0.1,0.2c0,0-0.1,0-0.1-0.1l-0.6-1.8c0-0.1,0-0.1,0.1-0.1c0,0,0.1,0,0.2,0.1l0.5,0.3
							c0.1,0.1,0.3,0,0.4,0l9.8-1.5c0.1,0,0.1,0,0.2,0.1l0.2,0.6c0,0.1,0,0.1-0.1,0.2l-8.9,4.4c-0.1,0.1-0.3,0.2-0.3,0.3l-0.2,0.6
							c0,0.1-0.1,0.1-0.1,0.1c0,0-0.1,0-0.1-0.1l-0.7-2.2c0-0.1,0-0.1,0-0.1c0,0,0.1,0,0.2,0.1l0.5,0.3c0.1,0,0.2,0,0.3,0
							L154.4,57.8z M155.2,57.3c0,0,0.1,0.1,0.1,0l3.3-1.6l0,0l-3.6,0.6c-0.1,0-0.1,0-0.1,0.1L155.2,57.3z"/>
						<path class="st0" d="M163.6,63.9c0.2,0,0.3-0.1,0.4-0.2l0.3-0.5c0-0.1,0.1-0.1,0.1-0.1c0,0,0.1,0,0.1,0.1l0.4,2.5
							c0,0,0,0.1-0.1,0.1c-0.1,0-0.1,0-0.2-0.1l-0.5-0.4c-0.1-0.1-0.3-0.1-0.4-0.1l-4.2,0.6l0,0l4.5,1c0.2,0,0.3,0,0.4-0.1l0.3-0.6
							c0-0.1,0.1-0.1,0.1-0.1c0,0,0.1,0,0.1,0.1l0.3,2.3c0,0.1,0,0.1-0.1,0.1c-0.1,0-0.1,0-0.2-0.1l-0.6-0.5
							c-0.1-0.1-0.4-0.2-0.6-0.3l-3.5-0.8l-4.9,2.1c-0.1,0.1-0.3,0.1-0.3,0.3l-0.4,0.6c0,0.1-0.1,0.1-0.2,0.1c-0.1,0-0.1,0-0.1-0.1
							l-0.3-2.4c0-0.1,0-0.1,0.1-0.1c0,0,0.1,0,0.2,0.1l0.6,0.3c0.1,0.1,0.3,0.1,0.4,0l3.2-1.4l0,0l-1.6-0.3l-1.9,0.3
							c-0.2,0-0.3,0.1-0.4,0.2l-0.3,0.6c0,0.1-0.1,0.1-0.1,0.1c0,0-0.1,0-0.1-0.1l-0.4-2.5c0,0,0-0.1,0.1-0.1c0.1,0,0.1,0,0.2,0.1
							l0.5,0.4c0.1,0.1,0.2,0.1,0.4,0.1L163.6,63.9z"/>
					</g>
				</g>
				<g>
					<path class="st0" d="M122.6,28.6c-10.1-1.6-15.4,2.5-17.8,5.4c5-3.1,11.8-2.3,11.8-2.3C106,31.6,101.9,39,101.9,39
						s-0.3,0.2-2.4,5.1c-1.6,2.4-3,5.2-3.6,8.3c-0.2,1.2-0.4,2.4-0.4,3.5c0,4,1.4,8,4,11.8c0.2,0.2,0.5,0.3,0.8,0.1
						c0.2-0.2,0.3-0.5,0.1-0.8c-3.3-4.8-4.5-9.6-3.5-14.5c0.4-1.8,1.2-5.1,4.3-8.8c1.6-1.7,4.6-4,10.7-4.3
						c9.9-0.5,12.5-4.2,14.6-6.8c0,0,1.9-2.5,2.9-2.9L122.6,28.6z"/>
					<path class="st0" d="M119.8,122.5c-4,1.4-9.5,2.5-14.5,2.5c-5,0-10.6-1-14.5-2.5c-0.6,0.2-1.2,0.3-1.9,0.3
						c-0.3,0-0.6,0-0.9-0.1c3.4,2.7,9.6,5.1,17.3,5.1c7.6,0,13.8-2.4,17.3-5.1c-0.3,0.1-0.6,0.1-0.9,0.1
						C121,122.8,120.4,122.7,119.8,122.5z"/>
					<path class="st0" d="M122.9,112.6c-1.1,0-1.9,0.8-1.9,2.1c0,1,0.6,1.6,0.9,1.6c-0.2,0.3-0.7,0.9-1.4,0.9c-0.9,0-2.5-0.7-2.5-4
						c0-2,0.9-3.5,2.2-4.6c0.8-0.7,0.7-1.9-2.1-1.1c0.7-7.2,2.5-12.5,2.5-12.5c6.6-18.4-7-29.7-7-29.7c-11.1-9.7-9.3-16.8-9.3-16.8
						c0.2-1.4-1-1.9-1-1.9c-1.4-0.5-2.5,1-2.5,1c-6.8,9,2.4,16.1,2.4,16.1c-0.4,4,1.8,6.9,3.5,8.5c0.2,0.2,0.5,0.4,0.7,0.6
						c0.4,0.4,1,1,1.7,1.9c0.5,0.6,1.1,1.4,1.7,2.3c1.8,2.7,3.9,7.1,3.6,12.4c0,0.2-0.2,0.4-0.4,0.4c-0.2,0-0.4-0.2-0.4-0.4
						c0.3-4.8-1.5-8.8-3.2-11.5c-0.1-0.1-0.2-0.3-0.3-0.4l0,0c-0.7-1.2-1.6-2.2-2.5-3.2c-5-5-12.2-6.7-12.2-6.7
						c-0.2-2.9-5.9-7.3-5.9-7.3c0.5-1,0.4-4.3,0.4-4.3c8.2-4.9,6-10.1,6-10.1c-0.8-2.1-2.1-0.6-2.1-0.6c-1.1,1.8-5.7,4.5-5.7,4.5
						c-5.5,4.1-4.9,9.5-4.9,9.5c0.4,4.6,2.6,6,2.6,6c3.5,2.5,4.4,5.4,4.4,5.4l-0.6,0.4c-1.2-3.4-5.5-4.9-5.5-4.9
						c-1.7-0.6-2.1-1.4-2.1-1.4c-1.9-3.6-4.6-6-4.6-6c-1-0.3-1.2-1.7-1.2-1.7c-2-10.7-10-10.8-10-10.8c-4.1,0-2.1,2.4-2.1,2.4
						c5,4.3,6.4,9.9,6.4,9.9c1.5,5.4,6.7,10.2,6.7,10.2c3,2.8,8.1,6.7,8.1,6.7l-0.3,0.7c-3.6-2.8-10-5.1-10-5.1
						c-0.4-0.9-4.2-4.3-4.2-4.3c-0.5-0.5-1-2.6-1-2.6c-2.2-13.8-8.6-12.1-8.6-12.1c-1.5,0.5-0.7,1.9-0.7,1.9
						c2.2,2.8,3.2,9.3,3.2,9.3c0.9,5.5,2.8,7.9,2.8,7.9c4.7,6.5,15.1,10.3,15.1,10.3l-0.2,0.6c-2.9-1-7.3,0.4-7.3,0.4
						c-2.1-2.5-6.9-3.1-6.9-3.1c-3.2-9.1-9.3-7.1-9.3-7.1c-2.4,1.7-0.5,2.8-0.5,2.8c2.5,1.8,4.8,6.2,4.8,6.2
						c5.4,7.5,12.6,6.6,12.6,6.6c13.3,0.1,15.8,15.1,15.8,15.1c0.3,1.4,1.1,3.1,1.8,4.3c-2-0.8-3.2,0.4-2.3,0.9
						c1.5,1,2.5,2.7,2.5,4.9c0,3.2-1.6,4-2.5,4c-0.7,0-1.2-0.6-1.4-0.9c0.3-0.1,0.9-0.6,0.9-1.6c0-1.3-0.9-2.1-1.9-2.1
						c-1.5,0-2.8,1.8-2.8,4.1c0,3,1.8,5.2,4.1,5.2c5.3,0,7.1-7.7,4-12.3c0.4,0.5,2.2,2.4,2.2,6c0,2.9-1.3,5-2.8,6.1
						c3.9-1.6,4.9-6.2,3-10.5c2.7,3.5,1.8,9.7-3.4,11.3c4.2,0.2,6.4-3.7,6-8.9c1.3,5.1-1.5,8.4-3.6,9.3c3.7,0.1,5.1-3.3,5.1-7.2
						c0.6,4.2-1.5,6.5-2.9,7.6c3.2,0.3,4-3.9,4.3-6.7c0.1,3.6-0.9,5.5-2.2,7.1c2.4,0,3.2-3.9,3.6-6.6c0.1,3.1-0.7,5.1-1.8,6.8
						c2.4-0.3,2.5-3.3,2.9-6.4c0.1,3.4-0.6,5.2-1.2,6.5c1.9,0,2.1-2.2,2.4-5.3c0.1,2.8-0.1,4.2-0.5,5.3c1.2-0.4,1.3-0.5,1.4-5.7
						c0.1,5.2,0.2,5.3,1.4,5.7c-0.3-1.1-0.6-2.5-0.5-5.3c0.2,3.1,0.5,5.3,2.4,5.3c-0.6-1.3-1.3-3.1-1.2-6.5c0.3,3,0.5,6.1,2.9,6.4
						c-1.1-1.7-1.9-3.7-1.8-6.8c0.4,2.7,1.2,6.6,3.6,6.6c-1.3-1.6-2.4-3.5-2.2-7.1c0.3,2.8,1.1,7,4.3,6.7c-1.4-1.2-3.4-3.5-2.9-7.6
						c0,3.9,1.4,7.3,5.1,7.2c-2.2-0.9-5-4.3-3.6-9.3c-0.5,5.2,1.8,9.1,6,8.9c-4.8-1.5-6-6.8-4-10.4c0.2-0.3,0.4-0.6,0.6-0.9
						c-0.1,0.3-0.2,0.5-0.3,0.8c-1.5,4.1-0.3,8.2,3.3,9.7c-1.5-1.1-2.8-3.2-2.8-6.1c0-2.1,0.6-3.6,1.2-4.6c0.4-0.7,0.8-1.2,1-1.4
						c-0.2,0.3-0.4,0.7-0.6,1c-2.2,4.7-0.3,11.3,4.6,11.3c2.3,0,4.1-2.2,4.1-5.2C125.7,114.4,124.4,112.6,122.9,112.6z M106.1,106.6
						c-0.1,0.2-0.3,0.3-0.5,0.2c-0.2-0.1-0.3-0.3-0.2-0.5c2.3-5.7,0.9-11.1-4.3-16c-3.9-3.7-8.6-5.7-8.6-5.7
						c-0.2-0.1-0.2-0.2-0.2-0.4c0-0.1,0-0.1,0-0.2c0.1-0.2,0.3-0.3,0.5-0.2c0.2,0.1,4.8,2.1,8.8,5.9c2.4,2.2,4,4.6,4.9,7.1
						C107.6,100,107.5,103.3,106.1,106.6z"/>
				</g>
			</g>
			<path class="st0" d="M96.2,75.5"/>
			<path class="st0" d="M96.2,0C54.6,0,20.7,33.9,20.7,75.5c0,41.6,33.9,75.5,75.5,75.5c41.6,0,75.5-33.9,75.5-75.5
				C171.7,33.9,137.9,0,96.2,0z M96.2,148.4c-40.2,0-72.9-32.7-72.9-72.9c0-40.2,32.7-72.9,72.9-72.9s72.9,32.7,72.9,72.9
				C169.1,115.7,136.4,148.4,96.2,148.4z"/>
		</g>
	</g>
</g>
</svg>
